<?xml version="1.0" encoding="UTF-8"?>
<!DOCTYPE svg PUBLIC "-//W3C//DTD SVG 1.1//EN" "http://www.w3.org/Graphics/SVG/1.1/DTD/svg11.dtd">
<svg xmlns="http://www.w3.org/2000/svg" version="1.1" width="257px" height="213px" style="shape-rendering:geometricPrecision; text-rendering:geometricPrecision; image-rendering:optimizeQuality; fill-rule:evenodd; clip-rule:evenodd" xmlns:xlink="http://www.w3.org/1999/xlink">
<g><path style="opacity:0.999" fill="#050916" d="M 22.5,-0.5 C 92.8333,-0.5 163.167,-0.5 233.5,-0.5C 243.241,2.73045 250.407,9.06378 255,18.5C 255.667,76.8333 255.667,135.167 255,193.5C 251.167,201.333 245.333,207.167 237.5,211C 164.5,211.667 91.5,211.667 18.5,211C 9.06378,206.407 2.73045,199.241 -0.5,189.5C -0.5,133.833 -0.5,78.1667 -0.5,22.5C 3.5,11.1667 11.1667,3.5 22.5,-0.5 Z"/></g>
<g><path style="opacity:1" fill="#51cbcd" d="M 59.5,52.5 C 59.427,54.0269 60.0937,55.0269 61.5,55.5C 61.427,57.0269 62.0937,58.0269 63.5,58.5C 63.427,60.0269 64.0937,61.0269 65.5,61.5C 65.5569,62.609 65.8902,63.609 66.5,64.5C 67.0569,69.1646 68.3902,73.4979 70.5,77.5C 71.0569,82.1646 72.3902,86.4979 74.5,90.5C 75.0569,95.1646 76.3902,99.4979 78.5,103.5C 78.523,105.927 79.023,108.26 80,110.5C 80.6667,111.833 81.3333,111.833 82,110.5C 82.4828,109.552 82.6495,108.552 82.5,107.5C 84.943,102.5 86.6096,97.1662 87.5,91.5C 90.6094,84.5015 92.9428,77.1682 94.5,69.5C 96.943,64.4995 98.6096,59.1662 99.5,53.5C 101.262,52.7377 102.262,51.4044 102.5,49.5C 102.833,48.5 103.5,47.8333 104.5,47.5C 108.319,47.414 111.985,48.0807 115.5,49.5C 116.5,50.1667 117.5,50.8333 118.5,51.5C 118.738,53.4044 119.738,54.7377 121.5,55.5C 122.288,76.4762 122.788,97.4762 123,118.5C 123.132,126.391 123.966,134.058 125.5,141.5C 125.938,147.025 125.938,152.359 125.5,157.5C 121.019,157.575 116.686,156.908 112.5,155.5C 110.457,154.421 109.124,152.754 108.5,150.5C 108.57,146.575 107.903,142.909 106.5,139.5C 106.5,135.5 106.5,131.5 106.5,127.5C 106.832,116.48 106.499,105.48 105.5,94.5C 104.702,94.9569 104.369,95.6236 104.5,96.5C 103.596,97.209 103.263,98.209 103.5,99.5C 102.04,103.875 100.373,108.208 98.5,112.5C 97.4625,113.93 96.7959,115.597 96.5,117.5C 96.0293,119.579 95.3627,121.579 94.5,123.5C 93.4625,124.93 92.7959,126.597 92.5,128.5C 92.4431,129.609 92.1098,130.609 91.5,131.5C 90.4625,132.93 89.7959,134.597 89.5,136.5C 89.4431,137.609 89.1098,138.609 88.5,139.5C 87.4625,140.93 86.7959,142.597 86.5,144.5C 82.5863,144.889 78.9196,144.222 75.5,142.5C 75.0269,141.094 74.0269,140.427 72.5,140.5C 72.1667,139.833 71.8333,139.167 71.5,138.5C 71.3404,136.847 70.6737,135.514 69.5,134.5C 69.5,134.167 69.5,133.833 69.5,133.5C 69.5905,130.848 68.9238,128.515 67.5,126.5C 67.4431,125.391 67.1098,124.391 66.5,123.5C 66.7406,121.102 66.0739,119.102 64.5,117.5C 64.5,117.167 64.5,116.833 64.5,116.5C 64.4725,113.084 63.4725,110.084 61.5,107.5C 61.5,107.167 61.5,106.833 61.5,106.5C 60.7556,100.849 59.0889,95.5156 56.5,90.5C 55.5713,91.6888 55.238,93.0222 55.5,94.5C 54.5817,100.179 53.5817,105.846 52.5,111.5C 51.2318,113.905 50.5651,116.572 50.5,119.5C 50.5,120.167 50.5,120.833 50.5,121.5C 48.9216,126.583 48.2549,131.916 48.5,137.5C 49.0659,144.451 48.3993,151.118 46.5,157.5C 42.8019,157.448 39.1352,157.114 35.5,156.5C 35.0269,155.094 34.0269,154.427 32.5,154.5C 30.7775,152.747 29.2775,150.747 28,148.5C 27.2185,143.083 27.3852,137.75 28.5,132.5C 29.9715,128.081 30.6382,123.414 30.5,118.5C 33.6198,99.4015 37.4531,80.4015 42,61.5C 42.7891,59.2884 42.6225,57.2884 41.5,55.5C 41.573,53.9731 40.9063,52.9731 39.5,52.5C 37.9539,50.1175 37.2872,47.4509 37.5,44.5C 41.5474,44.3048 45.5474,44.6381 49.5,45.5C 53.2123,47.3507 56.5457,49.684 59.5,52.5 Z"/></g>
<g><path style="opacity:1" fill="#276168" d="M 104.5,47.5 C 106.628,46.3709 108.961,46.2042 111.5,47C 113.32,47.2004 114.653,48.0337 115.5,49.5C 111.985,48.0807 108.319,47.414 104.5,47.5 Z"/></g>
<g><path style="opacity:1" fill="#265d65" d="M 160.5,47.5 C 157.098,47.3424 153.764,47.6758 150.5,48.5C 150.611,47.8826 150.944,47.3826 151.5,47C 154.696,46.1955 157.696,46.3622 160.5,47.5 Z"/></g>
<g><path style="opacity:1" fill="#51cacc" d="M 160.5,47.5 C 162.463,48.8202 164.463,50.1535 166.5,51.5C 166.427,53.0269 167.094,54.0269 168.5,54.5C 169.79,55.0577 170.623,56.0577 171,57.5C 171.5,64.4921 171.666,71.4921 171.5,78.5C 170.532,80.6074 170.198,82.9407 170.5,85.5C 169.192,89.0187 169.192,92.6853 170.5,96.5C 171.107,96.3764 171.44,96.0431 171.5,95.5C 171.833,94.8333 172.167,94.1667 172.5,93.5C 172.833,93.5 173.167,93.5 173.5,93.5C 174.906,93.0269 175.573,92.0269 175.5,90.5C 175.833,89.5 176.5,88.8333 177.5,88.5C 179.587,87.4154 180.92,85.7488 181.5,83.5C 182.433,80.6298 184.1,78.2964 186.5,76.5C 187.906,76.0269 188.573,75.0269 188.5,73.5C 189.906,73.0269 190.573,72.0269 190.5,70.5C 191.906,70.0269 192.573,69.0269 192.5,67.5C 194.408,66.5144 195.408,64.8477 195.5,62.5C 197.408,61.5144 198.408,59.8477 198.5,57.5C 199.794,52.7165 202.628,49.3832 207,47.5C 211.828,47.3701 215.328,49.3701 217.5,53.5C 218.162,57.4659 218.495,61.4659 218.5,65.5C 216.909,68.3516 215.576,71.3516 214.5,74.5C 213.094,74.9731 212.427,75.9731 212.5,77.5C 211.094,77.9731 210.427,78.9731 210.5,80.5C 208.367,82.0905 206.701,84.0905 205.5,86.5C 204.094,86.9731 203.427,87.9731 203.5,89.5C 196.897,96.6048 190.063,103.605 183,110.5C 182.26,111.749 182.427,112.749 183.5,113.5C 183.427,115.027 184.094,116.027 185.5,116.5C 186.5,116.833 187.167,117.5 187.5,118.5C 187.738,120.404 188.738,121.738 190.5,122.5C 191.5,122.833 192.167,123.5 192.5,124.5C 192.427,126.027 193.094,127.027 194.5,127.5C 195.5,127.833 196.167,128.5 196.5,129.5C 196.738,131.404 197.738,132.738 199.5,133.5C 200.5,133.833 201.167,134.5 201.5,135.5C 201.427,137.027 202.094,138.027 203.5,138.5C 204.5,138.833 205.167,139.5 205.5,140.5C 205.738,142.404 206.738,143.738 208.5,144.5C 209.5,144.833 210.167,145.5 210.5,146.5C 210.738,148.404 211.738,149.738 213.5,150.5C 214.5,150.833 215.167,151.5 215.5,152.5C 215.427,154.027 216.094,155.027 217.5,155.5C 218.5,155.833 219.167,156.5 219.5,157.5C 219.738,159.404 220.738,160.738 222.5,161.5C 223.5,161.833 224.167,162.5 224.5,163.5C 224.738,165.404 225.738,166.738 227.5,167.5C 228.5,167.833 229.167,168.5 229.5,169.5C 229.427,171.027 230.094,172.027 231.5,172.5C 232.038,174.117 232.371,175.784 232.5,177.5C 229.167,177.5 225.833,177.5 222.5,177.5C 220.694,176.976 219.028,176.309 217.5,175.5C 217.027,174.094 216.027,173.427 214.5,173.5C 199.218,159.886 184.551,145.552 170.5,130.5C 170.179,128.952 169.179,128.285 167.5,128.5C 167.5,129.833 167.5,131.167 167.5,132.5C 167.143,140.505 166.643,148.505 166,156.5C 165.617,157.056 165.117,157.389 164.5,157.5C 161.14,157.384 157.807,157.051 154.5,156.5C 153.738,154.738 152.404,153.738 150.5,153.5C 148.777,151.747 147.277,149.747 146,147.5C 145.708,137.831 145.875,128.165 146.5,118.5C 147.319,115.695 147.819,112.695 148,109.5C 148.5,100.173 148.666,90.8393 148.5,81.5C 149.146,70.4015 149.813,59.4015 150.5,48.5C 153.764,47.6758 157.098,47.3424 160.5,47.5 Z"/></g>
<g><path style="opacity:1" fill="#398e93" d="M 102.5,49.5 C 102.262,51.4044 101.262,52.7377 99.5,53.5C 99.7376,51.5956 100.738,50.2623 102.5,49.5 Z"/></g>
<g><path style="opacity:1" fill="#35858a" d="M 118.5,51.5 C 120.262,52.2623 121.262,53.5956 121.5,55.5C 119.738,54.7377 118.738,53.4044 118.5,51.5 Z"/></g>
<g><path style="opacity:1" fill="#399095" d="M 166.5,51.5 C 167.906,51.9731 168.573,52.9731 168.5,54.5C 167.094,54.0269 166.427,53.0269 166.5,51.5 Z"/></g>
<g><path style="opacity:1" fill="#327c82" d="M 59.5,52.5 C 60.9063,52.9731 61.573,53.9731 61.5,55.5C 60.0937,55.0269 59.427,54.0269 59.5,52.5 Z"/></g>
<g><path style="opacity:1" fill="#245a61" d="M 39.5,52.5 C 40.9063,52.9731 41.573,53.9731 41.5,55.5C 40.0937,55.0269 39.427,54.0269 39.5,52.5 Z"/></g>
<g><path style="opacity:1" fill="#29686e" d="M 99.5,53.5 C 98.6096,59.1662 96.943,64.4995 94.5,69.5C 95.3904,63.8338 97.057,58.5005 99.5,53.5 Z"/></g>
<g><path style="opacity:1" fill="#36878c" d="M 61.5,55.5 C 62.9063,55.9731 63.573,56.9731 63.5,58.5C 62.0937,58.0269 61.427,57.0269 61.5,55.5 Z"/></g>
<g><path style="opacity:1" fill="#245961" d="M 217.5,53.5 C 218.926,55.6789 219.592,58.1789 219.5,61C 219.492,62.7067 219.158,64.2067 218.5,65.5C 218.495,61.4659 218.162,57.4659 217.5,53.5 Z"/></g>
<g><path style="opacity:1" fill="#29656c" d="M 63.5,58.5 C 64.9063,58.9731 65.573,59.9731 65.5,61.5C 64.0937,61.0269 63.427,60.0269 63.5,58.5 Z"/></g>
<g><path style="opacity:1" fill="#2d7178" d="M 121.5,55.5 C 122.222,55.9175 122.722,56.5842 123,57.5C 123.5,85.5129 124.334,113.513 125.5,141.5C 123.966,134.058 123.132,126.391 123,118.5C 122.788,97.4762 122.288,76.4762 121.5,55.5 Z"/></g>
<g><path style="opacity:1" fill="#3c969b" d="M 198.5,57.5 C 198.408,59.8477 197.408,61.5144 195.5,62.5C 195.75,60.326 196.75,58.6594 198.5,57.5 Z"/></g>
<g><path style="opacity:1" fill="#3e9ca0" d="M 195.5,62.5 C 195.408,64.8477 194.408,66.5144 192.5,67.5C 192.75,65.326 193.75,63.6594 195.5,62.5 Z"/></g>
<g><path style="opacity:1" fill="#2c6d73" d="M 66.5,64.5 C 68.6098,68.5021 69.9431,72.8354 70.5,77.5C 68.3902,73.4979 67.0569,69.1646 66.5,64.5 Z"/></g>
<g><path style="opacity:1" fill="#378b8f" d="M 192.5,67.5 C 192.573,69.0269 191.906,70.0269 190.5,70.5C 190.427,68.9731 191.094,67.9731 192.5,67.5 Z"/></g>
<g><path style="opacity:1" fill="#2c6d73" d="M 94.5,69.5 C 92.9428,77.1682 90.6094,84.5015 87.5,91.5C 89.0572,83.8318 91.3906,76.4985 94.5,69.5 Z"/></g>
<g><path style="opacity:1" fill="#378b90" d="M 190.5,70.5 C 190.573,72.0269 189.906,73.0269 188.5,73.5C 188.427,71.9731 189.094,70.9731 190.5,70.5 Z"/></g>
<g><path style="opacity:1" fill="#399094" d="M 188.5,73.5 C 188.573,75.0269 187.906,76.0269 186.5,76.5C 186.427,74.9731 187.094,73.9731 188.5,73.5 Z"/></g>
<g><path style="opacity:1" fill="#1d4750" d="M 214.5,74.5 C 214.573,76.0269 213.906,77.0269 212.5,77.5C 212.427,75.9731 213.094,74.9731 214.5,74.5 Z"/></g>
<g><path style="opacity:1" fill="#1b424b" d="M 212.5,77.5 C 212.573,79.0269 211.906,80.0269 210.5,80.5C 210.427,78.9731 211.094,77.9731 212.5,77.5 Z"/></g>
<g><path style="opacity:1" fill="#2b6c73" d="M 70.5,77.5 C 72.6098,81.5021 73.9431,85.8354 74.5,90.5C 72.3902,86.4979 71.0569,82.1646 70.5,77.5 Z"/></g>
<g><path style="opacity:1" fill="#399095" d="M 181.5,83.5 C 180.92,85.7488 179.587,87.4154 177.5,88.5C 178.08,86.2512 179.413,84.5846 181.5,83.5 Z"/></g>
<g><path style="opacity:1" fill="#193e47" d="M 205.5,86.5 C 205.573,88.0269 204.906,89.0269 203.5,89.5C 203.427,87.9731 204.094,86.9731 205.5,86.5 Z"/></g>
<g><path style="opacity:1" fill="#29676e" d="M 61.5,106.5 C 59.557,102.434 58.057,98.1007 57,93.5C 56.6174,94.056 56.1174,94.3893 55.5,94.5C 55.238,93.0222 55.5713,91.6888 56.5,90.5C 59.0889,95.5156 60.7556,100.849 61.5,106.5 Z"/></g>
<g><path style="opacity:1" fill="#378b90" d="M 175.5,90.5 C 175.573,92.0269 174.906,93.0269 173.5,93.5C 173.427,91.9731 174.094,90.9731 175.5,90.5 Z"/></g>
<g><path style="opacity:1" fill="#3a9195" d="M 170.5,85.5 C 170.187,89.0419 170.521,92.3752 171.5,95.5C 171.44,96.0431 171.107,96.3764 170.5,96.5C 169.192,92.6853 169.192,89.0187 170.5,85.5 Z"/></g>
<g><path style="opacity:1" fill="#193e47" d="M 171.5,78.5 C 171.179,83.6946 171.513,88.6946 172.5,93.5C 172.167,94.1667 171.833,94.8333 171.5,95.5C 170.521,92.3752 170.187,89.0419 170.5,85.5C 170.198,82.9407 170.532,80.6074 171.5,78.5 Z"/></g>
<g><path style="opacity:1" fill="#2b6c72" d="M 74.5,90.5 C 76.6098,94.5021 77.9431,98.8354 78.5,103.5C 76.3902,99.4979 75.0569,95.1646 74.5,90.5 Z"/></g>
<g><path style="opacity:1" fill="#2b6a71" d="M 87.5,91.5 C 86.6096,97.1662 84.943,102.5 82.5,107.5C 83.3904,101.834 85.057,96.5005 87.5,91.5 Z"/></g>
<g><path style="opacity:1" fill="#215059" d="M 104.5,96.5 C 105.494,106.653 105.828,116.986 105.5,127.5C 104.833,118.167 104.167,108.833 103.5,99.5C 103.263,98.209 103.596,97.209 104.5,96.5 Z"/></g>
<g><path style="opacity:1" fill="#46b0b3" d="M 106.5,127.5 C 106.167,127.5 105.833,127.5 105.5,127.5C 105.828,116.986 105.494,106.653 104.5,96.5C 104.369,95.6236 104.702,94.9569 105.5,94.5C 106.499,105.48 106.832,116.48 106.5,127.5 Z"/></g>
<g><path style="opacity:1" fill="#2d7177" d="M 78.5,103.5 C 79.6005,105.277 80.4338,107.277 81,109.5C 81.2784,108.584 81.7784,107.918 82.5,107.5C 82.6495,108.552 82.4828,109.552 82,110.5C 81.3333,111.833 80.6667,111.833 80,110.5C 79.023,108.26 78.523,105.927 78.5,103.5 Z"/></g>
<g><path style="opacity:1" fill="#21525b" d="M 148.5,81.5 C 148.666,90.8393 148.5,100.173 148,109.5C 147.819,112.695 147.319,115.695 146.5,118.5C 146.666,105.986 147.333,93.6522 148.5,81.5 Z"/></g>
<g><path style="opacity:1" fill="#2b6c73" d="M 61.5,107.5 C 63.4725,110.084 64.4725,113.084 64.5,116.5C 62.9281,113.785 61.9281,110.785 61.5,107.5 Z"/></g>
<g><path style="opacity:1" fill="#358489" d="M 183.5,113.5 C 184.906,113.973 185.573,114.973 185.5,116.5C 184.094,116.027 183.427,115.027 183.5,113.5 Z"/></g>
<g><path style="opacity:1" fill="#215159" d="M 98.5,112.5 C 98.8799,114.698 98.2132,116.365 96.5,117.5C 96.7959,115.597 97.4625,113.93 98.5,112.5 Z"/></g>
<g><path style="opacity:1" fill="#2a676f" d="M 52.5,111.5 C 52.7062,114.495 52.0395,117.162 50.5,119.5C 50.5651,116.572 51.2318,113.905 52.5,111.5 Z"/></g>
<g><path style="opacity:1" fill="#34858a" d="M 187.5,118.5 C 189.262,119.262 190.262,120.596 190.5,122.5C 188.738,121.738 187.738,120.404 187.5,118.5 Z"/></g>
<g><path style="opacity:1" fill="#22545c" d="M 64.5,117.5 C 66.0739,119.102 66.7406,121.102 66.5,123.5C 64.9261,121.898 64.2594,119.898 64.5,117.5 Z"/></g>
<g><path style="opacity:1" fill="#37898e" d="M 192.5,124.5 C 193.906,124.973 194.573,125.973 194.5,127.5C 193.094,127.027 192.427,126.027 192.5,124.5 Z"/></g>
<g><path style="opacity:1" fill="#1e4a53" d="M 94.5,123.5 C 94.8799,125.698 94.2132,127.365 92.5,128.5C 92.7959,126.597 93.4625,124.93 94.5,123.5 Z"/></g>
<g><path style="opacity:1" fill="#205059" d="M 30.5,118.5 C 30.6382,123.414 29.9715,128.081 28.5,132.5C 28.5319,127.609 29.1985,122.943 30.5,118.5 Z"/></g>
<g><path style="opacity:1" fill="#276269" d="M 67.5,126.5 C 68.9238,128.515 69.5905,130.848 69.5,133.5C 68.0762,131.485 67.4095,129.152 67.5,126.5 Z"/></g>
<g><path style="opacity:1" fill="#3a9397" d="M 170.5,130.5 C 169.222,130.782 168.222,131.449 167.5,132.5C 167.5,131.167 167.5,129.833 167.5,128.5C 169.179,128.285 170.179,128.952 170.5,130.5 Z"/></g>
<g><path style="opacity:1" fill="#37898e" d="M 196.5,129.5 C 198.262,130.262 199.262,131.596 199.5,133.5C 197.738,132.738 196.738,131.404 196.5,129.5 Z"/></g>
<g><path style="opacity:1" fill="#1f4e56" d="M 91.5,131.5 C 91.8799,133.698 91.2132,135.365 89.5,136.5C 89.7959,134.597 90.4625,132.93 91.5,131.5 Z"/></g>
<g><path style="opacity:1" fill="#22545c" d="M 50.5,121.5 C 50.473,127.051 49.8063,132.384 48.5,137.5C 48.2549,131.916 48.9216,126.583 50.5,121.5 Z"/></g>
<g><path style="opacity:1" fill="#388e92" d="M 201.5,135.5 C 202.906,135.973 203.573,136.973 203.5,138.5C 202.094,138.027 201.427,137.027 201.5,135.5 Z"/></g>
<g><path style="opacity:1" fill="#2d7076" d="M 69.5,134.5 C 70.6737,135.514 71.3404,136.847 71.5,138.5C 69.8958,137.713 69.2291,136.38 69.5,134.5 Z"/></g>
<g><path style="opacity:1" fill="#28646b" d="M 72.5,140.5 C 74.0269,140.427 75.0269,141.094 75.5,142.5C 73.9731,142.573 72.9731,141.906 72.5,140.5 Z"/></g>
<g><path style="opacity:1" fill="#388d92" d="M 205.5,140.5 C 207.262,141.262 208.262,142.596 208.5,144.5C 206.738,143.738 205.738,142.404 205.5,140.5 Z"/></g>
<g><path style="opacity:1" fill="#1f4d55" d="M 88.5,139.5 C 88.8799,141.698 88.2132,143.365 86.5,144.5C 86.7959,142.597 87.4625,140.93 88.5,139.5 Z"/></g>
<g><path style="opacity:1" fill="#348287" d="M 106.5,139.5 C 107.903,142.909 108.57,146.575 108.5,150.5C 106.918,147.124 106.251,143.458 106.5,139.5 Z"/></g>
<g><path style="opacity:1" fill="#37898e" d="M 210.5,146.5 C 212.262,147.262 213.262,148.596 213.5,150.5C 211.738,149.738 210.738,148.404 210.5,146.5 Z"/></g>
<g><path style="opacity:1" fill="#388e92" d="M 215.5,152.5 C 216.906,152.973 217.573,153.973 217.5,155.5C 216.094,155.027 215.427,154.027 215.5,152.5 Z"/></g>
<g><path style="opacity:1" fill="#399095" d="M 150.5,153.5 C 152.404,153.738 153.738,154.738 154.5,156.5C 152.596,156.262 151.262,155.262 150.5,153.5 Z"/></g>
<g><path style="opacity:1" fill="#2f767c" d="M 32.5,154.5 C 34.0269,154.427 35.0269,155.094 35.5,156.5C 33.9731,156.573 32.9731,155.906 32.5,154.5 Z"/></g>
<g><path style="opacity:1" fill="#348287" d="M 112.5,155.5 C 116.686,156.908 121.019,157.575 125.5,157.5C 120.841,159.166 116.508,158.5 112.5,155.5 Z"/></g>
<g><path style="opacity:1" fill="#2a666e" d="M 35.5,156.5 C 39.1352,157.114 42.8019,157.448 46.5,157.5C 45.2067,158.158 43.7067,158.492 42,158.5C 39.4563,158.664 37.2897,157.997 35.5,156.5 Z"/></g>
<g><path style="opacity:1" fill="#2a6870" d="M 154.5,156.5 C 157.807,157.051 161.14,157.384 164.5,157.5C 163.378,158.156 162.045,158.489 160.5,158.5C 158.117,158.639 156.117,157.972 154.5,156.5 Z"/></g>
<g><path style="opacity:1" fill="#388d92" d="M 219.5,157.5 C 221.262,158.262 222.262,159.596 222.5,161.5C 220.738,160.738 219.738,159.404 219.5,157.5 Z"/></g>
<g><path style="opacity:1" fill="#37898e" d="M 224.5,163.5 C 226.262,164.262 227.262,165.596 227.5,167.5C 225.738,166.738 224.738,165.404 224.5,163.5 Z"/></g>
<g><path style="opacity:1" fill="#388d92" d="M 229.5,169.5 C 230.906,169.973 231.573,170.973 231.5,172.5C 230.094,172.027 229.427,171.027 229.5,169.5 Z"/></g>
<g><path style="opacity:1" fill="#2d7278" d="M 214.5,173.5 C 216.027,173.427 217.027,174.094 217.5,175.5C 215.973,175.573 214.973,174.906 214.5,173.5 Z"/></g>
<g><path style="opacity:1" fill="#35868b" d="M 231.5,172.5 C 234.267,173.638 234.934,175.472 233.5,178C 229.642,178.81 225.976,178.643 222.5,177.5C 225.833,177.5 229.167,177.5 232.5,177.5C 232.371,175.784 232.038,174.117 231.5,172.5 Z"/></g>
</svg>
