<?xml version="1.0" encoding="UTF-8"?>
<!DOCTYPE svg PUBLIC "-//W3C//DTD SVG 1.1//EN" "http://www.w3.org/Graphics/SVG/1.1/DTD/svg11.dtd">
<svg xmlns="http://www.w3.org/2000/svg" version="1.1" width="257px" height="213px" style="shape-rendering:geometricPrecision; text-rendering:geometricPrecision; image-rendering:optimizeQuality; fill-rule:evenodd; clip-rule:evenodd" xmlns:xlink="http://www.w3.org/1999/xlink">
<g><path style="opacity:0.999" fill="#050816" d="M 22.5,-0.5 C 92.8333,-0.5 163.167,-0.5 233.5,-0.5C 243.241,2.73045 250.407,9.06378 255,18.5C 255.667,76.8333 255.667,135.167 255,193.5C 251.167,201.333 245.333,207.167 237.5,211C 164.5,211.667 91.5,211.667 18.5,211C 9.06378,206.407 2.73045,199.241 -0.5,189.5C -0.5,133.833 -0.5,78.1667 -0.5,22.5C 3.5,11.1667 11.1667,3.5 22.5,-0.5 Z"/></g>
<g><path style="opacity:1" fill="#51cacc" d="M 125.5,150.5 C 123.167,150.5 120.833,150.5 118.5,150.5C 115.805,150.067 113.638,148.734 112,146.5C 110.185,139.964 109.352,133.297 109.5,126.5C 109.832,117.475 109.498,108.475 108.5,99.5C 107.702,99.9569 107.369,100.624 107.5,101.5C 102.451,114.31 97.7842,127.31 93.5,140.5C 89.0472,140.865 85.2138,139.532 82,136.5C 77.9106,123.309 73.7439,110.142 69.5,97C 66.362,104.777 64.362,113.277 63.5,122.5C 62.6909,124.292 62.1909,126.292 62,128.5C 61.5004,135.492 61.3337,142.492 61.5,149.5C 55.0806,152.028 50.0806,150.361 46.5,144.5C 46.6123,137.82 46.9457,131.153 47.5,124.5C 49.543,106.24 52.8763,88.2399 57.5,70.5C 55.6819,66.6743 54.3486,62.6743 53.5,58.5C 62.0597,58.1961 68.893,61.5294 74,68.5C 79.6046,82.981 84.6046,97.6476 89,112.5C 94.8657,95.9029 100.532,79.2363 106,62.5C 113.521,59.7465 119.188,62.0798 123,69.5C 123.131,96.5298 123.965,123.53 125.5,150.5 Z"/></g>
<g><path style="opacity:1" fill="#52cbcd" d="M 162.5,95.5 C 161.2,98.0241 161.2,100.691 162.5,103.5C 163.107,103.376 163.44,103.043 163.5,102.5C 173.28,90.6977 181.947,78.031 189.5,64.5C 197.11,62.9328 201.11,66.0995 201.5,74C 201.344,78.1359 200.177,81.9692 198,85.5C 189.729,96.2747 180.895,106.608 171.5,116.5C 185.145,133.313 198.978,149.979 213,166.5C 213.49,167.793 213.657,169.127 213.5,170.5C 207.218,171.339 201.552,169.839 196.5,166C 184.965,154.632 173.631,143.132 162.5,131.5C 161.791,130.596 160.791,130.263 159.5,130.5C 159.5,132.833 159.5,135.167 159.5,137.5C 158.551,142.74 158.218,148.073 158.5,153.5C 149.851,155.35 144.351,152.017 142,143.5C 143.622,117.205 144.956,90.8714 146,64.5C 152.057,62.682 157.057,64.3486 161,69.5C 162.441,78.0578 162.941,86.7244 162.5,95.5 Z"/></g>
<g><path style="opacity:1" fill="#23575f" d="M 162.5,95.5 C 162.198,98.0593 162.532,100.393 163.5,102.5C 163.44,103.043 163.107,103.376 162.5,103.5C 161.2,100.691 161.2,98.0241 162.5,95.5 Z"/></g>
<g><path style="opacity:1" fill="#276067" d="M 109.5,126.5 C 108.833,118.167 108.167,109.833 107.5,101.5C 107.369,100.624 107.702,99.9569 108.5,99.5C 109.498,108.475 109.832,117.475 109.5,126.5 Z"/></g>
<g><path style="opacity:1" fill="#1d454f" d="M 63.5,122.5 C 63.2173,131.679 62.5506,140.679 61.5,149.5C 61.3337,142.492 61.5004,135.492 62,128.5C 62.1909,126.292 62.6909,124.292 63.5,122.5 Z"/></g>
<g><path style="opacity:1" fill="#255b63" d="M 162.5,131.5 C 160.94,133.156 159.94,135.156 159.5,137.5C 159.5,135.167 159.5,132.833 159.5,130.5C 160.791,130.263 161.791,130.596 162.5,131.5 Z"/></g>
<g><path style="opacity:1" fill="#37898f" d="M 47.5,124.5 C 46.9457,131.153 46.6123,137.82 46.5,144.5C 45.1232,137.769 45.4566,131.102 47.5,124.5 Z"/></g>
<g><path style="opacity:1" fill="#1e4953" d="M 118.5,150.5 C 120.833,150.5 123.167,150.5 125.5,150.5C 123.25,153.034 120.916,153.034 118.5,150.5 Z"/></g>
</svg>
