<?xml version="1.0" encoding="UTF-8"?>
<!DOCTYPE svg PUBLIC "-//W3C//DTD SVG 1.1//EN" "http://www.w3.org/Graphics/SVG/1.1/DTD/svg11.dtd">
<svg xmlns="http://www.w3.org/2000/svg" version="1.1" width="1071px" height="888px" style="shape-rendering:geometricPrecision; text-rendering:geometricPrecision; image-rendering:optimizeQuality; fill-rule:evenodd; clip-rule:evenodd" xmlns:xlink="http://www.w3.org/1999/xlink">
<g><path style="opacity:0.999" fill="#010e19" d="M 84.5,-0.5 C 383.5,-0.5 682.5,-0.5 981.5,-0.5C 1017.75,14.2417 1044.58,39.2417 1062,74.5C 1063.94,196.823 1064.77,319.156 1064.5,441.5C 1064.77,563.844 1063.94,686.177 1062,808.5C 1045.83,839.333 1022.33,862.833 991.5,879C 977.833,879.333 964.167,879.667 950.5,880C 811.335,880.991 672.169,881.491 533,881.5C 380.158,881.775 227.325,880.941 74.5,879C 39.2417,861.58 14.2417,834.747 -0.5,798.5C -0.5,560.5 -0.5,322.5 -0.5,84.5C 16.1667,44.5 44.5,16.1667 84.5,-0.5 Z"/></g>
<g><path style="opacity:1" fill="#50c8ca" d="M 522.5,626.5 C 511.833,626.5 501.167,626.5 490.5,626.5C 480.089,624.548 471.922,619.215 466,610.5C 457.813,581.408 454.313,551.741 455.5,521.5C 457.469,485.865 456.136,450.198 451.5,414.5C 450.186,415.313 449.019,416.313 448,417.5C 447.605,420.207 447.105,422.873 446.5,425.5C 425.548,478.015 406.548,531.349 389.5,585.5C 370.632,587.268 354.465,581.601 341,568.5C 323.857,514.072 306.524,459.739 289,405.5C 276.077,438.927 267.911,473.593 264.5,509.5C 260.854,516.284 258.687,523.617 258,531.5C 255.778,562.123 254.944,592.79 255.5,623.5C 228.882,633.628 208.215,626.628 193.5,602.5C 193.869,574.781 195.202,547.114 197.5,519.5C 205.319,443.437 218.985,368.437 238.5,294.5C 234.68,284.187 230.846,273.854 227,263.5C 224.865,256.961 223.365,250.294 222.5,243.5C 258.382,242.026 286.882,255.693 308,284.5C 331.123,344.037 351.957,404.37 370.5,465.5C 395.228,397.317 418.561,328.651 440.5,259.5C 472.654,248.717 496.487,258.383 512,288.5C 513.152,401.244 516.652,513.911 522.5,626.5 Z"/></g>
<g><path style="opacity:1" fill="#51c9cb" d="M 676.5,398.5 C 671.222,408.882 671.222,419.382 676.5,430C 679.686,430.446 681.353,428.946 681.5,425.5C 722.307,376.416 758.307,323.916 789.5,268C 821.088,261.925 837.754,274.925 839.5,307C 839.261,324.048 834.761,339.882 826,354.5C 791.456,400.059 754.289,443.559 714.5,485C 770.869,555.042 828.369,624.209 887,692.5C 889.151,698.289 889.984,704.289 889.5,710.5C 863.699,714.375 840.365,708.542 819.5,693C 771.243,645.244 723.576,597.077 676.5,548.5C 676.084,546.248 674.751,544.748 672.5,544C 669.518,543.502 666.518,543.335 663.5,543.5C 663.5,554.5 663.5,565.5 663.5,576.5C 662.424,587.17 661.257,597.837 660,608.5C 659.5,619.161 659.333,629.828 659.5,640.5C 624.821,647.257 602.321,633.924 592,600.5C 591.333,592.833 591.333,585.167 592,577.5C 598.164,474.213 603.331,370.879 607.5,267.5C 633.58,261.025 654.746,268.359 671,289.5C 677.199,325.644 679.033,361.977 676.5,398.5 Z"/></g>
<g><path style="opacity:1" fill="#19665c" d="M 676.5,398.5 C 675.495,408.132 677.162,417.132 681.5,425.5C 681.353,428.946 679.686,430.446 676.5,430C 671.222,419.382 671.222,408.882 676.5,398.5 Z"/></g>
<g><path style="opacity:1" fill="#1d6d63" d="M 455.5,521.5 C 453.075,489.3 450.075,457.3 446.5,425.5C 447.105,422.873 447.605,420.207 448,417.5C 449.019,416.313 450.186,415.313 451.5,414.5C 456.136,450.198 457.469,485.865 455.5,521.5 Z"/></g>
<g><path style="opacity:1" fill="#145751" d="M 264.5,509.5 C 263.265,547.782 260.265,585.782 255.5,623.5C 254.944,592.79 255.778,562.123 258,531.5C 258.687,523.617 260.854,516.284 264.5,509.5 Z"/></g>
<g><path style="opacity:1" fill="#2d8680" d="M 197.5,519.5 C 195.202,547.114 193.869,574.781 193.5,602.5C 188.343,579.686 188.176,556.686 193,533.5C 193.905,528.513 195.405,523.846 197.5,519.5 Z"/></g>
<g><path style="opacity:1" fill="#1e6d64" d="M 676.5,548.5 C 669.449,556.601 665.115,565.934 663.5,576.5C 663.5,565.5 663.5,554.5 663.5,543.5C 666.518,543.335 669.518,543.502 672.5,544C 674.751,544.748 676.084,546.248 676.5,548.5 Z"/></g>
<g><path style="opacity:1" fill="#145a53" d="M 490.5,626.5 C 501.167,626.5 511.833,626.5 522.5,626.5C 517.558,633.812 510.891,636.312 502.5,634C 498.545,631.168 494.545,628.668 490.5,626.5 Z"/></g>
</svg>
